# xmcd
#
# Track frame offsets:
#	150
#	26763
#	50970
#	70488
#	94540
#	122618
#	142460
#	168722
#	187878
#	212445
#	239808
#
# Disc length: 3514 seconds
#
# Revision: 1
# Processed by: cddbd v1.5.1PL0 Copyright (c) Steve Scherf et al.
# Submitted via: CDex 1.50Beta5
#
DISCID=ad0db80b
DTITLE=今井美樹 - Escape
DYEAR=1900
DGENRE=Pop
TTITLE0=今井美樹/ホントの気持ち(Album Ver.)
TTITLE1=空中庭園
TTITLE2=life is beautiful
TTITLE3=ラブソングは止まらない
TTITLE4=SHOWER
TTITLE5=島へ
TTITLE6=未来は何処?
TTITLE7=月光
TTITLE8=FOREST
TTITLE9=風に吹かれて
TTITLE10=THIS IS LOVE
EXTD=
EXTT0=
EXTT1=
EXTT2=
EXTT3=
EXTT4=
EXTT5=
EXTT6=
EXTT7=
EXTT8=
EXTT9=
EXTT10=
PLAYORDER=
